<svg id="visual" viewBox="0 0 900 600" width="900" height="600" xmlns="http://www.w3.org/2000/svg" xmlns:xlink="http://www.w3.org/1999/xlink" version="1.1"><rect x="0" y="0" width="900" height="600" fill="#140021"></rect><path d="M0 308L129 308L129 291L257 291L257 307L386 307L386 299L514 299L514 373L643 373L643 368L771 368L771 368L900 368L900 368L900 601L900 601L771 601L771 601L643 601L643 601L514 601L514 601L386 601L386 601L257 601L257 601L129 601L129 601L0 601Z" fill="#9900ff"></path><path d="M0 401L129 401L129 426L257 426L257 421L386 421L386 432L514 432L514 368L643 368L643 419L771 419L771 361L900 361L900 350L900 601L900 601L771 601L771 601L643 601L643 601L514 601L514 601L386 601L386 601L257 601L257 601L129 601L129 601L0 601Z" fill="#7700c6"></path><path d="M0 494L129 494L129 522L257 522L257 465L386 465L386 501L514 501L514 506L643 506L643 507L771 507L771 508L900 508L900 528L900 601L900 601L771 601L771 601L643 601L643 601L514 601L514 601L386 601L386 601L257 601L257 601L129 601L129 601L0 601Z" fill="#560090"></path></svg>